<svg xmlns="http://www.w3.org/2000/svg" xmlns:xlink="http://www.w3.org/1999/xlink" version="1.1" id="圖層_1" x="0px" y="0px" viewBox="0 0 100 100" xml:space="preserve" class="" style="webkit-user-select:none;webkit-perspective-origin:0px 0px;user-select:none;pointer-events:all;perspective-origin:0px 0px;overflow-y:hidden;overflow-x:hidden;overflow:hidden;display:block"><g class="" style="webkit-user-select:none;webkit-perspective-origin:0px 0px;user-select:none;pointer-events:all;perspective-origin:0px 0px;"><g xmlns="http://www.w3.org/2000/svg" class="" style="x:0px;webkit-user-select:none;webkit-transform-origin:50px 50px;r:0px;pointer-events:all;perspective-origin:0px 0px;"><g class="ld " style="y:0px;x:0px;webkit-user-select:none;webkit-transform-origin:50px 50px;webkit-perspective-origin:0px 0px;webkit-animation-duration:1s;webkit-animation-delay:-1s;webkit-animation:1s ease -1s 1 normal none running none;user-select:none;transform-origin:50px 50px;transform:none;r:0px;pointer-events:all;perspective-origin:0px 0px;direction:ltr;d:none"><g class="" style="webkit-user-select:none;webkit-perspective-origin:0px 0px;user-select:none;pointer-events:all;perspective-origin:0px 0px"><style type="text/css" class="" style="y:0px;x:0px;webkit-user-select:none;webkit-transform-origin:50px 50px;webkit-animation-duration:1s;webkit-animation-delay:-1s;webkit-animation:1s ease -1s 1 normal none running none;user-select:none;transform-origin:50px 50px;transform:none;r:0px;pointer-events:all;direction:ltr;d:none">.st0{fill:#F5E6C8;} .st1{fill:#F47E60;} .st2{fill:#C33737;} .st3{fill:#E0E0E0;} .st4{fill:#333333;} .st5{fill:#77A4BD;} .st6{fill:#A0C8D7;} .st7{fill:#666666;} .st8{fill:none;stroke:#E0E0E0;stroke-width:6;stroke-miterlimit:10;stroke-dasharray:5,5;} .st9{fill:#A0C8D7;stroke:#333333;stroke-width:2.6608;stroke-linejoin:round;stroke-miterlimit:10;} .st10{fill:#77A4BD;stroke:#333333;stroke-width:2.6608;stroke-linejoin:round;stroke-miterlimit:10;} .st11{fill:#E0E0E0;stroke:#333333;stroke-width:2.6608;stroke-linejoin:round;stroke-miterlimit:10;} .st12{fill:#666666;stroke:#333333;stroke-width:2.6608;stroke-linejoin:round;stroke-miterlimit:10;} .st13{fill:#E15B64;stroke:#000000;stroke-width:2.8604;stroke-miterlimit:10;} .st14{fill:none;stroke:#000000;stroke-width:7.2297;stroke-miterlimit:10;} .st15{fill:none;stroke:#333333;stroke-width:5;stroke-linecap:round;stroke-miterlimit:10;} .st16{fill:#F8B26A;stroke:#333333;stroke-width:3;stroke-miterlimit:10;} .st17{fill:#F5E6C8;stroke:#000000;stroke-width:3;stroke-linejoin:round;stroke-miterlimit:10;} .st18{fill:#F5E6C8;stroke:#000000;stroke-width:3;stroke-miterlimit:10;} .st19{fill:#FFFFFF;stroke:#000000;stroke-width:6;stroke-miterlimit:10;} .st20{fill:#666666;stroke:#333333;stroke-width:2.8414;} .st21{fill:#EEF4DC;stroke:#333333;stroke-width:4;} .st22{fill:#FFFFFF;stroke:#000000;stroke-width:5;stroke-miterlimit:10;} .st23{fill:#32AAB4;stroke:#000000;stroke-width:5;stroke-miterlimit:10;} .st24{fill:none;stroke:#FFFFFF;stroke-width:4;stroke-linecap:round;stroke-linejoin:round;} .st25{fill:#FFFFFF;} .st26{fill:#F8EAEC;stroke:#FFFFFF;} .st27{fill:#FFFFFF;stroke:#221E1F;stroke-width:8;stroke-miterlimit:10;} .st28{fill:#221E1F;} .st29{fill:#E90C59;stroke:#333333;stroke-width:4;} .st30{fill:#FE718D;stroke:#333333;stroke-width:4;} .st31{fill:#46DFF0;} .st32{fill:#03AFF3;stroke:#46DFF0;stroke-width:5;stroke-linecap:round;} .st33{fill:#EEF4DC;} .st34{fill:#E90C59;stroke:#E90C59;stroke-width:2;} .st35{fill:#FE718D;stroke:#FE718D;stroke-width:2;} .st36{fill:none;stroke:#46DFF0;stroke-width:5;stroke-linecap:round;} .st37{fill:#EBA523;stroke:#333333;stroke-width:4;stroke-linecap:round;stroke-linejoin:round;} .st38{fill:#E0E0E0;stroke:#333333;stroke-width:4;stroke-linecap:round;} .st39{fill:#F5E6C8;stroke:#333333;stroke-width:4;stroke-linecap:round;stroke-linejoin:round;} .st40{fill:#333333;stroke:#333333;stroke-width:4;stroke-linecap:round;stroke-linejoin:round;} .st41{fill:none;stroke:#333333;stroke-width:4;stroke-linecap:round;stroke-linejoin:round;} .st42{fill:#E0E0E0;stroke:#333333;stroke-width:3.0801;stroke-linecap:round;} .st43{fill:#EBA523;stroke:#333333;stroke-width:2.6855;stroke-linecap:round;stroke-linejoin:round;} .st44{fill:#E0E0E0;stroke:#333333;stroke-width:2.6855;stroke-linecap:round;} .st45{fill:#F5E6C8;stroke:#333333;stroke-width:2.6855;stroke-linecap:round;stroke-linejoin:round;} .st46{fill:#333333;stroke:#333333;stroke-width:2.6855;stroke-linecap:round;stroke-linejoin:round;} .st47{fill:none;stroke:#333333;stroke-width:2.6855;stroke-linecap:round;stroke-linejoin:round;} .st48{fill:#E0E0E0;stroke:#333333;stroke-width:3.3468;stroke-linecap:round;} .st49{fill:#666666;stroke:#333333;stroke-width:2.672;} .st50{fill:#E0E0E0;stroke:#333333;stroke-width:3.9;stroke-linecap:round;} .st51{fill:#666666;stroke:#333333;stroke-width:2.621;} .st52{fill:#333333;stroke:#333333;stroke-width:3.0406;} .st53{fill:#E0E0E0;stroke:#333333;stroke-width:2.8414;} .st54{fill:none;stroke:#333333;stroke-width:2.9737;} .st55{fill:#1BD112;} .st56{fill:none;} .st57{fill:#666666;stroke:#000000;stroke-width:3;stroke-miterlimit:10;} .st58{fill:#333333;stroke:#000000;stroke-width:3;stroke-miterlimit:10;} .st59{fill:#77A4BD;stroke:#333333;stroke-width:5;} .st60{fill:none;stroke:#000000;stroke-width:2.552;stroke-miterlimit:10;} .st61{fill:#4D4D4D;} .st62{fill:#E15B64;stroke:#000000;stroke-width:3;stroke-miterlimit:10;} .st63{fill:#F5E169;stroke:#000000;stroke-width:3;stroke-miterlimit:10;} .st64{fill:#ABBD81;} .st65{fill:#494B32;} .st66{fill:#A0C8D7;stroke:#000000;stroke-width:3;stroke-miterlimit:10;} .st67{fill:#77A4BD;stroke:#000000;stroke-width:3;stroke-miterlimit:10;} .st68{fill:#F47E60;stroke:#000000;stroke-width:3;stroke-miterlimit:10;} .st69{fill:#E0E0E0;stroke:#000000;stroke-width:3;stroke-linejoin:round;stroke-miterlimit:10;} .st70{fill:#666666;stroke:#000000;stroke-width:3;stroke-linejoin:round;stroke-miterlimit:10;} .st71{fill:#66503A;stroke:#000000;stroke-width:3;stroke-linejoin:round;stroke-miterlimit:10;} .st72{fill:#E0E0E0;stroke:#333333;stroke-width:3;stroke-miterlimit:10;} .st73{fill:#666666;stroke:#333333;stroke-width:3;stroke-miterlimit:10;} .st74{fill:#FFFFFF;stroke:#333333;stroke-width:3;stroke-miterlimit:10;} .st75{fill:none;stroke:#333333;stroke-width:3;stroke-miterlimit:10;} .st76{fill:#F5E6C8;stroke:#333333;stroke-width:3;stroke-miterlimit:10;} .st77{fill:#849B87;stroke:#000000;stroke-width:3;stroke-miterlimit:10;} .st78{fill:#F8B26A;stroke:#000000;stroke-width:3;stroke-miterlimit:10;} .st79{fill:#E15B64;} .st80{fill:#F5E6C8;stroke:#333333;stroke-width:8;stroke-miterlimit:10;} .st81{stroke:#000000;stroke-width:8;stroke-miterlimit:10;} .st82{fill:#666666;stroke:#333333;stroke-width:5;stroke-miterlimit:10;} .st83{fill:#E0E0E0;stroke:#333333;stroke-width:5;stroke-miterlimit:10;} .st84{fill:#E0E0E0;stroke:#000000;stroke-width:5.7838;stroke-miterlimit:10;} .st85{fill:#F47E60;stroke:#000000;stroke-width:5.7838;stroke-miterlimit:10;} .st86{fill:#F5E6C8;stroke:#000000;stroke-width:5.6519;stroke-miterlimit:10;} .st87{fill:none;stroke:#333333;stroke-width:5;stroke-miterlimit:10;} .st88{fill:#E0E0E0;stroke:#333333;stroke-width:4;stroke-miterlimit:10;} .st89{fill:#F47E60;stroke:#333333;stroke-width:4;stroke-miterlimit:10;} .st90{fill:#F5E6C8;stroke:#333333;stroke-width:4.0258;stroke-miterlimit:10;} .st91{fill:#66503A;stroke:#333333;stroke-width:4.0258;stroke-miterlimit:10;} .st92{fill:none;stroke:#333333;stroke-width:3.7219;stroke-miterlimit:10;} .st93{fill:none;stroke:#333333;stroke-width:4.881;stroke-miterlimit:10;} .st94{fill:#E15B64;stroke:#333333;stroke-width:4.6426;stroke-miterlimit:10;} .st95{fill:#F47E60;stroke:#333333;stroke-width:4.6426;stroke-miterlimit:10;} .st96{fill:#F8B26A;stroke:#333333;stroke-width:4.6426;stroke-miterlimit:10;} .st97{fill:#849B87;} .st98{fill:#F8B26A;} .st99{fill:#C33737;stroke:#000000;stroke-width:2.8604;stroke-miterlimit:10;} .st100{fill:#C33737;stroke:#000000;stroke-width:2.3193;stroke-miterlimit:10;} .st101{fill:#53BBEA;} .st102{fill:#DA5548;} .st103{fill:#F9CF5A;} .st104{fill:#67A648;} .st105{fill:#3790CE;} .st106{fill:#B93626;} .st107{fill:#8FD5E0;} .st108{fill:#E0782B;} .st109{fill:#5B9CC6;} .st110{fill:#871B19;} .st111{fill:#ED483B;} .st112{fill:#CACACA;} .st113{fill:#4B84C4;} .st114{fill:#C23D2B;} .st115{fill:#EBEBEB;} .st116{fill:#FFFFFF;stroke:#333333;stroke-width:2.5574;stroke-linejoin:round;stroke-miterlimit:10;} .st117{fill:#A3A3A3;} .st118{fill:none;stroke:#666666;stroke-width:8;stroke-miterlimit:10;} .st119{fill:none;stroke:#333333;stroke-width:8;stroke-miterlimit:10;} .st120{fill:none;stroke:#C33737;stroke-width:5.1949;stroke-miterlimit:10;} .st121{fill:#FFDC6C;} .st122{fill:#F5E169;} .st123{fill:none;stroke:#F5E169;stroke-miterlimit:10;} .st124{fill:#8A8A8A;} .st125{fill:#999999;} .st126{fill:#4A3827;} .st127{fill:#66503A;} .st128{fill:#C69C6D;} .st129{fill:#E0E0E0;stroke:#000000;stroke-width:3.7234;stroke-miterlimit:10;} .st130{fill:none;stroke:#000000;stroke-width:4;stroke-linecap:round;stroke-miterlimit:10;} .st131{fill:#E0E0E0;stroke:#333333;stroke-width:3.7234;stroke-miterlimit:10;} .st132{fill:none;stroke:#333333;stroke-width:4;stroke-linecap:round;stroke-miterlimit:10;} .st133{fill:#983733;} .st134{fill:#AAAAAA;}</style>
<g class="" style="y:0px;x:0px;webkit-user-select:none;webkit-transform-origin:50px 50px;webkit-perspective-origin:0px 0px;webkit-animation-duration:1s;webkit-animation-delay:-0.923077s;webkit-animation:1s ease -0.923077s 1 normal none running none;user-select:none;transform-origin:50px 50px;transform:none;r:0px;pointer-events:all;perspective-origin:0px 0px;direction:ltr;d:none"><circle class="st5" cx="50" cy="50" r="40" fill="#1c79e1" style="webkit-user-select:none;webkit-perspective-origin:0px 0px;user-select:none;r:40px;pointer-events:all;perspective-origin:0px 0px;fill:rgb(28, 121, 225);cy:50px;cx:50px"/></g>
<g class="" style="y:0px;x:0px;webkit-user-select:none;webkit-transform-origin:50px 50px;webkit-perspective-origin:0px 0px;webkit-animation-duration:1s;webkit-animation-delay:-0.846154s;webkit-animation:1s ease -0.846154s 1 normal none running none;user-select:none;transform-origin:50px 50px;transform:none;r:0px;pointer-events:all;perspective-origin:0px 0px;direction:ltr;d:none"><path class="st26" d="M11.7,61.6L11.7,61.6l0.1,0.2l0,0L11.7,61.6z" fill="#f9c800" stroke="#f9c800" style="webkit-user-select:none;webkit-perspective-origin:0px 0px;user-select:none;stroke:rgb(249, 200, 0);r:0px;pointer-events:all;perspective-origin:0px 0px;fill:rgb(249, 200, 0);d:path('M 11.7 61.6 L 11.7 61.6 L 11.8 61.8 L 11.8 61.8 L 11.7 61.6 Z')"/></g>
<g class="" style="y:0px;x:0px;webkit-user-select:none;webkit-transform-origin:50px 50px;webkit-perspective-origin:0px 0px;webkit-animation-duration:1s;webkit-animation-delay:-0.769231s;webkit-animation:1s ease -0.769231s 1 normal none running none;user-select:none;transform-origin:50px 50px;transform:none;r:0px;pointer-events:all;perspective-origin:0px 0px;direction:ltr;d:none"><path class="st0" d="M81,59.2c-0.3-1-1-1.1-1.8-0.4l0-0.7c-0.4,0.2-0.7,0.2-1,0c0.3-0.3,0.4-0.7,0.3-1.1c-0.7,0-0.9-0.5-0.7-1.5 l-0.2,0.1c-0.6-0.8-2.8-0.8-3.7-0.9c-0.2-0.7-0.7-1-1.3-0.9c-0.3-0.5-0.7-0.8-1.3-1l0.5-0.3c-0.5,0.1-0.9,0.2-1.4,0.3 c-0.4,0.1-1.8,0.4-2.3,0.4c-0.1-0.4-0.4-0.6-0.9-0.5l-0.3-0.5c-0.2,0.2-0.3,0.3-0.1,0.6c-0.5,0.5-0.8,1-0.8,1.7 c-0.2-0.2-0.6-1.9-0.3-1.6l0.4-0.1c-0.1-1.4-0.4,0.3-1.8,0.4c-0.1,0.5-0.4,1-0.9,1.4c-0.3,0.1-0.6,0.3-0.7,0.6 c-0.5-0.2-1-0.3-1.5-0.4l0-0.1c-0.5,0.2-1.4,0.4-1.8,0.5c-0.1,0.1-0.2,0.1-0.3,0c-0.8-0.7-1.7-2.9-0.8-4.1c-0.2-0.2-2.8-1.1-3.3-0.3 c-0.1,0-0.2-0.1-0.3-0.1l-0.1,0.1l-0.2-0.1c0.3-0.5,0.5-1.1,0.5-1.7l-0.1,0l0-0.1c0.1-0.1,0.2,0,0.3,0.2c0.4-0.4,0.4-0.7,0.1-1 c0.1-0.3,0.2-0.6,0.3-0.8c0.6-0.2,1.2-0.5,1.1-0.5L56.2,47c1.3-0.1,2.4,0.3,3.3,1.1l-0.4,0.4l0.9-0.2c0.4-0.1,0.8-0.1,1.2-0.2 c0,0,0,0,0,0c0,0.2,0.1,0.3,0.3,0.4c-0.3,0.2-0.8,0.3-1.3,0.1c0,0.4,0.2,0.5,0.6,0.2c0.8-0.1,1-0.2,1.3,0.3c0-0.3,0.1-0.5,0.4-0.6 c0.3,0,0.8-0.2,1.2,0c0.3-0.4,0.2-0.5-0.4-0.5l0-0.2c-0.4-0.1-1.1-0.2-1.5-0.1c-0.5-0.2-0.8-0.2-0.9,0c-0.2,0-0.3,0-0.6,0.1 c-1.4-0.8-4-2-5.6-0.6c-2.9,1.2-6.7,3.4-6.1-2.3c0.3-3,2.3-4.3,5.1-3.4c-0.2-0.1-0.3-0.3-0.3-0.6c2.6-0.9,2,0.8,3.3-0.1 c0.1,0.1,2.1,3.7,2.6,3.2c-0.4-1.9-1-3.5-0.4-5.4c0.4-1.2,1.7-1.2,1.7-2.7c-0.1-0.3-0.4-0.6-0.7-0.8l0.4,0.1 c-0.2-0.2-0.2-0.4-0.2-0.7c0,0.4,0.2,0.6,0.5,0.7l-0.1,0.5l0.1,0c0.4-0.6,0.3-1.1-0.1-1.5c0.2,0,0.3,0.1,0.4,0.3 c0.2-0.3,0.3-0.6,0.2-1l-0.2,0l0.1-0.2l0,0.1c0.3,0,0.7-0.1,0.9-0.3c-0.3-0.1-0.6-0.1-0.9,0.1c0.5-0.3,1.1-0.5,1.7-0.7 c0-0.2,0-0.3-0.2-0.3l0.1,0.2c-0.6-0.7-0.4-1.5,0.8-2.1l-0.2-0.2c0.4-0.1,0.7-0.2,1.1-0.3c-0.3,0.6-0.8,0.4-0.3,1.1 c1,0.1,1.7-0.6,2.1-1.9c-0.3-0.1-0.5-0.2-0.6-0.6c-0.2,0.2-0.3,0.3-0.4,0.5c0,0,0,0,0,0c-0.4,0.2-0.7,0.1-1-0.2c0,0,0,0.1,0,0.1 c-0.2-0.2-0.4-0.6-0.5-1.1c-1.1-0.1-1.9,0.5-2.4,1.6c1.1-2.7,2.2-2.1,3.5-3.1c-0.3,0.7-0.2,1.2,0.4,1.4c-0.3,0.9,0.6,0.2,1.6,0.2 l-0.1,0.3c0.3-0.1,0.4-0.3,0.4-0.6c0.2,0.2,0.3,0.8,0.8,0.5c-0.2-0.4-0.5-0.8-0.7-1.1L67,27.2c0-0.4-0.2-0.6-0.6-0.5l-0.1,0.2 l-0.4-0.1l0-0.2l-0.3-0.1l-0.1,0.2c0-0.3-0.1-0.6-0.1-0.9c0.1-0.1,0.2-0.3,0.4-0.4c-0.9-1-4.5-3-5.5-3.6c0.2,0.5,0,0.9-0.3,1.2 c-1-1.2-2.6-2-4.3-1.6c0.4,1,0.9,1,0.5,1.8c1.3,0.7,1.4,1.4,0.2,2.2c1,0.9,1.2,1.5,0.5,1.9c-0.9-0.4-1.4-1.2-1.5-2.1 c-2-0.4-3.6-0.7-4.9-1.9c0-0.9,0.7-1.8,1.2-2.3c0.4-0.1,0.7-0.3,0.9-0.6c0,0.2-0.1,0.4-0.3,0.6c0.3-0.2,0.5-0.1,0.6,0.2 c0.2-0.1,0.5-0.3,0.6-0.5c0.2,0.2,0.3,0.3,0.4,0.3c0,0,0,0,0,0c0.2,0.1,0.5,0,0.6-0.3c-0.1,0-0.2,0-0.2,0c-0.1,0-0.2,0-0.3,0 c-0.3-0.4-0.7-0.6-1.2-0.5c0,0,0,0,0-0.1c0.1-0.2,0.1-0.3,0.2-0.5c1.1,0.1,1.4-0.2,0.8-0.8c0.1-0.2,0.1-0.4,0-0.5 c0.1-0.1,0.3-0.2,0.3-0.4c0.3,0.1,0.5,0.2,0.8,0.4l-0.1,0.1c0.5,0,1,0.2,1.4,0.6c-0.2,0.3-0.2,0.6,0.1,0.8c-0.3,0.1-0.7,0.2-1.1,0.2 L55,20.3c0.3,0.1,0.7,0.1,1.1,0l-0.1-0.1c0.4,0.1,0.7,0.2,1.1,0.4l0,0.1c0.7,0.3,1.4,0.4,2.1,0.4c-0.4-0.3-0.8-0.5-1.3-0.7 c0.4,0.1,0.9,0.3,1.4,0.3c-0.5-0.7-1.2-1.2-1.9-1.5c0.5-0.2,1-0.1,1.4,0.4c0.1-1.3-0.7-1.7-2.3-1.4l0.3-0.3 c-0.1-0.1-2.7-1.1-3.2-1.1c-0.1,0.2-0.2,0.3-0.5,0.3c0-0.2-0.1-0.3-0.1-0.4c0.1,0.1,0.2,0.1,0.2,0.1c0.2-0.1,0.4-0.1,0.6-0.1 c-0.3-0.3-0.7-0.4-1-0.3c0,0,0,0,0,0c-0.1,0-0.2-0.1-0.2,0c0.1,0,0.1-0.1,0.2-0.1c-0.1,0-0.3-0.1-0.4-0.1c0.1,0,0.2-0.1,0.1-0.3 c0.2-0.1,0.3-0.2,0.2-0.3c2-0.1,3.7,1.1,5.6,1.6c-0.2,0-0.4,0-0.6,0c0.5,0.7,0.9,0.8,1,0.2c0.4,0.2,0.6,0.4,0.3,0.7 c1.5,1.6,3.6,2.9,5.8,2.8c-0.8-0.7-1.5-1.5-2-2.5c0.5-0.5,0.4-1-0.3-1.5c0.4-0.4,0.3-0.8-0.3-1.3c-0.1,0.1-0.3,0.1-0.4,0.2 c-0.2-0.2-0.4-0.4-0.7-0.4c0.3,0,0.5,0.1,0.8,0.1l0-0.2c-0.5-0.1-1-0.3-1.4-0.4l0.4,0c-0.2-0.1-0.5-0.2-0.8-0.2 c0.2-0.2,0-0.4-0.5-0.3l0.1-0.1c-0.2,0-0.5-0.1-0.6-0.2c-0.4-0.1-0.8-0.2-1.1-0.3l0-0.1c-0.8-0.8-1.6-1-2.2-0.5 c0-0.4-0.4-0.6-1.1-0.4c0.1,0.1,0.2,0.2,0.3,0.3c-0.2-0.1-0.4-0.2-0.6-0.2l0.1,0.1c-0.3,0.1-0.3,0.1-0.5,0.1 c0.1-0.1,0.2-0.2,0.2-0.3c-0.4-0.2-0.9-0.1-1.3,0.2l0.2,0.1l-0.2,0.1c0.2,0.3,0.4,0.4,0.8,0.4c-0.3,0-0.5,0-0.8-0.1l0.1,0.2 c-0.3-0.1-0.5,0-0.7,0.2l0.2,0.1c-0.1,0-0.1,0.1-0.1,0.1c-0.4,0-0.7,0.1-1,0.2l0,0.2c-0.3-0.2-0.5-0.1-0.8,0.2 c0,0.1,0.1,0.2,0.2,0.2c0.3,0.2,0.6,0.3,1,0.2c-0.1,0.2-0.3,0.2-0.6,0.1c0,0,0,0.1,0.1,0.1c-0.3-0.3-0.6-0.4-1-0.4l0,0.1 c-0.3,0.1-0.3,0.3-0.2,0.4l0,0c-0.2-0.1-0.3,0-0.5,0.1l-0.2,0l-0.1,0.3l0.3,0l0,0.2c0.1,0,0.2,0,0.2,0.1c0,0,0,0,0,0 c0.1,0,0.1,0.1,0.2,0.1c0.1,0.1,0.2,0.2,0.3,0.2C50.1,16.5,50,16.7,50,17c-0.3-0.1-0.5,0-0.7,0.2l0.2,0.3l-0.4-0.1l0,0.1 c0.2,0.1,0.5,0.3,0.6,0.5c0.1,0,0.1,0,0.2,0c-0.1,0.1-0.2,0.2-0.4,0.3c0.2,0.2,0.4,0.2,0.6,0.3c0.1,0.1,0.1,0.2,0.1,0.3 c-0.2-0.1-0.4,0-0.4,0.3c-0.1-0.6-0.3-0.6-0.6-0.2c-0.5,0-0.9-0.1-1.3-0.1c0.2-0.1,0.4-0.3,0.5-0.5l-0.1-0.2c0.3,0.1,0.4,0,0.5-0.2 c-0.6-0.1-0.8-0.3-0.7-0.7c0-0.4-0.1-0.7-0.6-0.6c0.1,0.3,0,0.4-0.2,0.6c0-0.6-0.1-0.7-0.5-0.4c-0.1-0.3-0.4-0.3-0.7-0.1l0.2-0.2 c-0.1-0.1-0.2-0.1-0.3-0.1c0,0,0.1,0,0.1,0c-0.3-0.4-0.8-0.6-1.4-0.5c0,0.5-0.3,0.8-1,0.8c0.2,0.1,0.3,0.3,0.2,0.5 c0.5,0,0.8-0.2,1.2-0.4c-0.1,0.1-0.2,0.2-0.3,0.3c0.2,0.1,0.4,0.2,0.6,0.2L45,17.4l0,0.2c0.4,0,0.8,0.1,1.2,0.2c-0.4,0-0.8,0-1.2,0 l0.1,0.4c0.4-0.1,0.5,0,0.5,0.3c0.2,0.1,0.4,0.2,0.6,0.3c-0.4,0.1-0.9,0.1-1.3-0.1l0.5-0.2c-0.4-0.5-0.9-0.8-1.6-0.9 c-0.1,0.1-0.3,0.2-0.5,0.1l0.2-0.3L43,17.7c0.1-0.2,0-0.4-0.1-0.5c-0.1,0.1-0.3,0.2-0.4,0.2l0-0.2c-1.6,0-2.5,0-3.4-1.2l0.1-0.1 c-0.1-0.1-0.2-0.1-0.3-0.1c0.2-0.1,0.2-0.2,0.1-0.3c-1.7-0.4-2.5,0.2-3.6,1.4L35,16.7l0.3-0.2c-0.9-0.3-1.5,0.1-1.2,0.7l0,0.1 c0.2-0.1,0.3-0.1,0.5,0c-0.3,0.1-0.8,0.3-0.9,0.3l-0.4,0.1l0-0.1c-0.8,0.1-1.6,0.6-2,1.3l0.3,0c-0.2,0.2-0.4,0.4-0.7,0.6 c0.1,0.1,0.3,0.1,0.5,0l-0.2,0.2l0.2-0.1l-0.2,0.3l0.3-0.1l0,0.1l0.4,0c-1.1,0.6-2.4,1-3.6,1.2c2.2,0.2,4-1,6-1.6 c-0.2,0.5-0.7,0.7-1.3,0.8c0.9-0.1,1.2-0.1,1.8-0.4c0,1.4,3.4,2.5,1.8,4.4c0.2,0.3,0.2,0.6,0,0.9l0.3,0.3c-0.4,0.4-0.4,0.7-0.2,1 c-0.1-0.1-0.3-0.1-0.5-0.2c-0.3,0.3,0.2,0.9,0.5,1.1c0.1,0.4,0.4,0.6,0.8,0.5c0-0.4-0.1-0.6-0.2-0.9c0.5,0.4,1,0.9,0.3,1.8 c0.1-0.5-0.1-0.7-0.5-0.9c-1.3,4.5-1.8,5.6-0.1,9.4c0.7,1.6,1.6,3.3,1.1,4.4c0.2,0.3,0.5,0.6,0.7,0.8l0.1-0.1 c0.6,0.3,0.8,0.8,0.6,1.5c0.2,0.9,0.6,1.4,1.3,1.4c0.4-0.3-2.3-5.4-1.5-4c-0.1-0.8-0.3-1.6-0.5-2.4c1.5,0.7,1.1,3.2,2.7,3.9 l-0.1,0.4c1.2,0.9,2,2.3,2.2,3.8l-0.2,0.1c2.4,3.2,8.2,5.1,11.9,5c0.2,0,0.3,0.1,0.3,0.3l0,0.1l-0.1-0.1l-0.1,0.1 c0.5,0.4,0.9,0.8,1.4,1.2l-0.2,0.1l0.2,0.1c-0.1,0.4,0,0.7,0.4,0.8c0.1-0.1,0.2-0.2,0.1-0.4c0.2,0,0.2,0.1,0.2,0.3 c0.3,0.4,0.8,0.8,1.2,1l0-0.2c0.8,0,0.7,0.3,1.2,0.2l0.1,0.4c0.2,0,0.4-0.1,0.6-0.3c-0.4-0.9,0.2-1,1.2-0.6l-0.2,0.2 c0.4,0.4,1.1,1.9,0.7,2.7l0.2,0.1c-0.1,0.2-1.1,1.2-1,1.5l-0.2,0.1l0.1,0.2c-0.7,0.5-1.1,1-1.4,1.7c0.1,0.3,0.1,0.6,0,0.8l0.4,0.3 l0.3-0.3c-0.5,0.7-0.9,1.8-0.9,2.6c1.4,1,2.5,3,2.9,4.5c0.7,0.9,1.7,1.5,2.9,1.7c2.2,3.5-3,9.5-5,12.5c0.3-0.2,0.6-0.3,0.9-0.4 c-0.6,0.6-1.2,1.2-2.1,1.6l0.6,0c-1.1,0.3-1.5,0.7-1.1,1.2c-0.2,0-0.3,0.2-0.2,0.3c0.9,0.2,1.8,0.1,2.6-0.3l-0.1-0.1 c0.7-0.5,1.6-1.1,2.4-1.5c-0.2,0.1-0.4,0-0.6-0.2c1.9-0.1,2.8-0.7,2.7-1.8c-0.2,0.2-0.4,0.2-0.5,0.1c1.4-1.6,3.7-1.4,5.1-3L69.9,80 l0.2-0.3l-0.4-0.3l0.2-0.2c7.1-0.1,13.6-12.8,14.7-18.9C84.9,58.2,81.9,58.8,81,59.2z M52.6,15.5c0.1,0,0.2,0,0.3,0 c-0.1,0-0.1,0.1-0.2,0.1C52.7,15.6,52.7,15.6,52.6,15.5L52.6,15.5z M50,17.3C50,17.3,50,17.3,50,17.3C50,17.3,50,17.3,50,17.3 C50.1,17.3,50,17.3,50,17.3z M52.2,16.7c-0.1,0.1-0.1,0.2-0.2,0.2c-0.1-0.1-0.2-0.1-0.2-0.2C52,16.8,52.1,16.8,52.2,16.7z M51.3,15.5C51.3,15.5,51.3,15.5,51.3,15.5C51.3,15.5,51.4,15.5,51.3,15.5l0.1,0.1c-0.1,0-0.2,0.1-0.3,0.2c0.2,0,0.4,0.1,0.5,0.3 C51.5,16,51.3,16,51.1,16l0.1,0.2c-0.1,0-0.3,0-0.4-0.1l0-0.1c-0.1-0.1-0.2-0.1-0.2-0.2C50.8,15.9,51.1,15.7,51.3,15.5z M50.1,15.6 C50.1,15.5,50.1,15.5,50.1,15.6C50.1,15.5,50.1,15.5,50.1,15.6C50.1,15.6,50.1,15.6,50.1,15.6z M50.3,15.7 C50.3,15.7,50.3,15.7,50.3,15.7L50.3,15.7c0-0.1,0-0.1-0.1-0.1l0.2,0c0,0.1,0,0.2,0.1,0.2C50.4,15.7,50.3,15.7,50.3,15.7z M50.1,17.3C50.2,17.3,50.2,17.2,50.1,17.3l0.2,0c0.2-0.2,0.4-0.4,0.5-0.5c0.2,0.1,0.4,0.1,0.6,0.1c0.1,0,0.1,0,0.2,0 c-0.6,0.6-0.6,0.8,0,0.7l-0.2,0.2c0.4,0.3,0.8,0.5,1.1,0.6c0.1,0.3,0,0.7-0.3,0.9c-0.2-0.4-0.3-0.5-0.6-0.9l-0.3,0.3l-0.1-0.4 l-0.5-0.1C51.2,17.8,51,17.5,50.1,17.3z M46.5,19.1l-0.1-0.2c0.1,0,0.2,0.1,0.3,0.1L46.5,19.1z" fill="#f9c800" style="webkit-user-select:none;webkit-perspective-origin:0px 0px;user-select:none;r:0px;pointer-events:all;perspective-origin:0px 0px;fill:rgb(249, 200, 0);d:path('M 81 59.2 C 80.7 58.2 80 58.1 79.2 58.8 L 79.2 58.1 C 78.8 58.3 78.5 58.3 78.2 58.1 C 78.5 57.8 78.6 57.4 78.5 57 C 77.8 57 77.6 56.5 77.8 55.5 L 77.6 55.6 C 77 54.8 74.8 54.8 73.9 54.7 C 73.7 54 73.2 53.7 72.6 53.8 C 72.3 53.3 71.9 53 71.3 52.8 L 71.8 52.5 C 71.3 52.6 70.9 52.7 70.4 52.8 C 70 52.9 68.6 53.2 68.1 53.2 C 68 52.8 67.7 52.6 67.2 52.7 L 66.9 52.2 C 66.7 52.4 66.6 52.5 66.8 52.8 C 66.3 53.3 66 53.8 66 54.5 C 65.8 54.3 65.4 52.6 65.7 52.9 L 66.1 52.8 C 66 51.4 65.7 53.1 64.3 53.2 C 64.2 53.7 63.9 54.2 63.4 54.6 C 63.1 54.7 62.8 54.9 62.7 55.2 C 62.2 55 61.7 54.9 61.2 54.8 L 61.2 54.7 C 60.7 54.9 59.8 55.1 59.4 55.2 C 59.3 55.3 59.2 55.3 59.1 55.2 C 58.3 54.5 57.4 52.3 58.3 51.1 C 58.1 50.9 55.5 50 55 50.8 C 54.9 50.8 54.8 50.7 54.7 50.7 L 54.6 50.8 L 54.4 50.7 C 54.7 50.2 54.9 49.6 54.9 49 L 54.8 49 L 54.8 48.9 C 54.9 48.8 55 48.9 55.1 49.1 C 55.5 48.7 55.5 48.4 55.2 48.1 C 55.3 47.8 55.4 47.5 55.5 47.3 C 56.1 47.1 56.7 46.8 56.6 46.8 L 56.2 47 C 57.5 46.9 58.6 47.3 59.5 48.1 L 59.1 48.5 L 60 48.3 C 60.4 48.2 60.8 48.2 61.2 48.1 C 61.2 48.1 61.2 48.1 61.2 48.1 C 61.2 48.3 61.3 48.4 61.5 48.5 C 61.2 48.7 60.7 48.8 60.2 48.6 C 60.2 49 60.4 49.1 60.8 48.8 C 61.6 48.7 61.8 48.6 62.1 49.1 C 62.1 48.8 62.2 48.6 62.5 48.5 C 62.8 48.5 63.3 48.3 63.7 48.5 C 64 48.1 63.9 48 63.3 48 L 63.3 47.8 C 62.9 47.7 62.2 47.6 61.8 47.7 C 61.3 47.5 61 47.5 60.9 47.7 C 60.7 47.7 60.6 47.7 60.3 47.8 C 58.9 47 56.3 45.8 54.7 47.2 C 51.8 48.4 48 50.6 48.6 44.9 C 48.9 41.9 50.9 40.6 53.7 41.5 C 53.5 41.4 53.4 41.2 53.4 40.9 C 56 40 55.4 41.7 56.7 40.8 C 56.8 40.9 58.8 44.5 59.3 44 C 58.9 42.1 58.3 40.5 58.9 38.6 C 59.3 37.4 60.6 37.4 60.6 35.9 C 60.5 35.6 60.2 35.3 59.9 35.1 L 60.3 35.2 C 60.1 35 60.1 34.8 60.1 34.5 C 60.1 34.9 60.3 35.1 60.6 35.2 L 60.5 35.7 L 60.6 35.7 C 61 35.1 60.9 34.6 60.5 34.2 C 60.7 34.2 60.8 34.3 60.9 34.5 C 61.1 34.2 61.2 33.9 61.1 33.5 L 60.9 33.5 L 61 33.3 L 61 33.4 C 61.3 33.4 61.7 33.3 61.9 33.1 C 61.6 33 61.3 33 61 33.2 C 61.5 32.9 62.1 32.7 62.7 32.5 C 62.7 32.3 62.7 32.2 62.5 32.2 L 62.6 32.4 C 62 31.7 62.2 30.9 63.4 30.3 L 63.2 30.1 C 63.6 30 63.9 29.9 64.3 29.8 C 64 30.4 63.5 30.2 64 30.9 C 65 31 65.7 30.3 66.1 29 C 65.8 28.9 65.6 28.8 65.5 28.4 C 65.3 28.6 65.2 28.7 65.1 28.9 C 65.1 28.9 65.1 28.9 65.1 28.9 C 64.7 29.1 64.4 29 64.1 28.7 C 64.1 28.7 64.1 28.8 64.1 28.8 C 63.9 28.6 63.7 28.2 63.6 27.7 C 62.5 27.6 61.7 28.2 61.2 29.3 C 62.3 26.6 63.4 27.2 64.7 26.2 C 64.4 26.9 64.5 27.4 65.1 27.6 C 64.8 28.5 65.7 27.8 66.7 27.8 L 66.6 28.1 C 66.9 28 67 27.8 67 27.5 C 67.2 27.7 67.3 28.3 67.8 28 C 67.6 27.6 67.3 27.2 67.1 26.9 L 67 27.2 C 67 26.8 66.8 26.6 66.4 26.7 L 66.3 26.9 L 65.9 26.8 L 65.9 26.6 L 65.6 26.5 L 65.5 26.7 C 65.5 26.4 65.4 26.1 65.4 25.8 C 65.5 25.7 65.6 25.5 65.8 25.4 C 64.9 24.4 61.3 22.4 60.3 21.8 C 60.5 22.3 60.3 22.7 60 23 C 59 21.8 57.4 21 55.7 21.4 C 56.1 22.4 56.6 22.4 56.2 23.2 C 57.5 23.9 57.6 24.6 56.4 25.4 C 57.4 26.3 57.6 26.9 56.9 27.3 C 56 26.9 55.5 26.1 55.4 25.2 C 53.4 24.8 51.8 24.5 50.5 23.3 C 50.5 22.4 51.2 21.5 51.7 21 C 52.1 20.9 52.4 20.7 52.6 20.4 C 52.6 20.6 52.5 20.8 52.3 21 C 52.6 20.8 52.8 20.9 52.9 21.2 C 53.1 21.1 53.4 20.9 53.5 20.7 C 53.7 20.9 53.8 21 53.9 21 C 53.9 21 53.9 21 53.9 21 C 54.1 21.1 54.4 21 54.5 20.7 C 54.4 20.7 54.3 20.7 54.3 20.7 C 54.2 20.7 54.1 20.7 54 20.7 C 53.7 20.3 53.3 20.1 52.8 20.2 C 52.8 20.2 52.8 20.2 52.8 20.1 C 52.9 19.9 52.9 19.8 53 19.6 C 54.1 19.7 54.4 19.4 53.8 18.8 C 53.9 18.6 53.9 18.4 53.8 18.3 C 53.9 18.2 54.1 18.1 54.1 17.9 C 54.4 18 54.6 18.1 54.9 18.3 L 54.8 18.4 C 55.3 18.4 55.8 18.6 56.2 19 C 56 19.3 56 19.6 56.3 19.8 C 56 19.9 55.6 20 55.2 20 L 55 20.3 C 55.3 20.4 55.7 20.4 56.1 20.3 L 56 20.2 C 56.4 20.3 56.7 20.4 57.1 20.6 L 57.1 20.7 C 57.8 21 58.5 21.1 59.2 21.1 C 58.8 20.8 58.4 20.6 57.9 20.4 C 58.3 20.5 58.8 20.7 59.3 20.7 C 58.8 20 58.1 19.5 57.4 19.2 C 57.9 19 58.4 19.1 58.8 19.6 C 58.9 18.3 58.1 17.9 56.5 18.2 L 56.8 17.9 C 56.7 17.8 54.1 16.8 53.6 16.8 C 53.5 17 53.4 17.1 53.1 17.1 C 53.1 16.9 53 16.8 53 16.7 C 53.1 16.8 53.2 16.8 53.2 16.8 C 53.4 16.7 53.6 16.7 53.8 16.7 C 53.5 16.4 53.1 16.3 52.8 16.4 C 52.8 16.4 52.8 16.4 52.8 16.4 C 52.7 16.4 52.6 16.3 52.6 16.4 C 52.7 16.4 52.7 16.3 52.8 16.3 C 52.7 16.3 52.5 16.2 52.4 16.2 C 52.5 16.2 52.6 16.1 52.5 15.9 C 52.7 15.8 52.8 15.7 52.7 15.6 C 54.7 15.5 56.4 16.7 58.3 17.2 C 58.1 17.2 57.9 17.2 57.7 17.2 C 58.2 17.9 58.6 18 58.7 17.4 C 59.1 17.6 59.3 17.8 59 18.1 C 60.5 19.7 62.6 21 64.8 20.9 C 64 20.2 63.3 19.4 62.8 18.4 C 63.3 17.9 63.2 17.4 62.5 16.9 C 62.9 16.5 62.8 16.1 62.2 15.6 C 62.1 15.7 61.9 15.7 61.8 15.8 C 61.6 15.6 61.4 15.4 61.1 15.4 C 61.4 15.4 61.6 15.5 61.9 15.5 L 61.9 15.3 C 61.4 15.2 60.9 15 60.5 14.9 L 60.9 14.9 C 60.7 14.8 60.4 14.7 60.1 14.7 C 60.3 14.5 60.1 14.3 59.6 14.4 L 59.7 14.3 C 59.5 14.3 59.2 14.2 59.1 14.1 C 58.7 14 58.3 13.9 58 13.8 L 58 13.7 C 57.2 12.9 56.4 12.7 55.8 13.2 C 55.8 12.8 55.4 12.6 54.7 12.8 C 54.8 12.9 54.9 13 55 13.1 C 54.8 13 54.6 12.9 54.4 12.9 L 54.5 13 C 54.2 13.1 54.2 13.1 54 13.1 C 54.1 13 54.2 12.9 54.2 12.8 C 53.8 12.6 53.3 12.7 52.9 13 L 53.1 13.1 L 52.9 13.2 C 53.1 13.5 53.3 13.6 53.7 13.6 C 53.4 13.6 53.2 13.6 52.9 13.5 L 53 13.7 C 52.7 13.6 52.5 13.7 52.3 13.9 L 52.5 14 C 52.4 14 52.4 14.1 52.4 14.1 C 52 14.1 51.7 14.2 51.4 14.3 L 51.4 14.5 C 51.1 14.3 50.9 14.4 50.6 14.7 C 50.6 14.8 50.7 14.9 50.8 14.9 C 51.1 15.1 51.4 15.2 51.8 15.1 C 51.7 15.3 51.5 15.3 51.2 15.2 C 51.2 15.2 51.2 15.3 51.3 15.3 C 51 15 50.7 14.9 50.3 14.9 L 50.3 15 C 50 15.1 50 15.3 50.1 15.4 L 50.1 15.4 C 49.9 15.3 49.8 15.4 49.6 15.5 L 49.4 15.5 L 49.3 15.8 L 49.6 15.8 L 49.6 16 C 49.7 16 49.8 16 49.8 16.1 C 49.8 16.1 49.8 16.1 49.8 16.1 C 49.9 16.1 49.9 16.2 50 16.2 C 50.1 16.3 50.2 16.4 50.3 16.4 C 50.1 16.5 50 16.7 50 17 C 49.7 16.9 49.5 17 49.3 17.2 L 49.5 17.5 L 49.1 17.4 L 49.1 17.5 C 49.3 17.6 49.6 17.8 49.7 18 C 49.8 18 49.8 18 49.9 18 C 49.8 18.1 49.7 18.2 49.5 18.3 C 49.7 18.5 49.9 18.5 50.1 18.6 C 50.2 18.7 50.2 18.8 50.2 18.9 C 50 18.8 49.8 18.9 49.8 19.2 C 49.7 18.6 49.5 18.6 49.2 19 C 48.7 19 48.3 18.9 47.9 18.9 C 48.1 18.8 48.3 18.6 48.4 18.4 L 48.3 18.2 C 48.6 18.3 48.7 18.2 48.8 18 C 48.2 17.9 48 17.7 48.1 17.3 C 48.1 16.9 48 16.6 47.5 16.7 C 47.6 17 47.5 17.1 47.3 17.3 C 47.3 16.7 47.2 16.6 46.8 16.9 C 46.7 16.6 46.4 16.6 46.1 16.8 L 46.3 16.6 C 46.2 16.5 46.1 16.5 46 16.5 C 46 16.5 46.1 16.5 46.1 16.5 C 45.8 16.1 45.3 15.9 44.7 16 C 44.7 16.5 44.4 16.8 43.7 16.8 C 43.9 16.9 44 17.1 43.9 17.3 C 44.4 17.3 44.7 17.1 45.1 16.9 C 45 17 44.9 17.1 44.8 17.2 C 45 17.3 45.2 17.4 45.4 17.4 L 45 17.4 L 45 17.6 C 45.4 17.6 45.8 17.7 46.2 17.8 C 45.8 17.8 45.4 17.8 45 17.8 L 45.1 18.2 C 45.5 18.1 45.6 18.2 45.6 18.5 C 45.8 18.6 46 18.7 46.2 18.8 C 45.8 18.9 45.3 18.9 44.9 18.7 L 45.4 18.5 C 45 18 44.5 17.7 43.8 17.6 C 43.7 17.7 43.5 17.8 43.3 17.7 L 43.5 17.4 L 43 17.7 C 43.1 17.5 43 17.3 42.9 17.2 C 42.8 17.3 42.6 17.4 42.5 17.4 L 42.5 17.2 C 40.9 17.2 40 17.2 39.1 16 L 39.2 15.9 C 39.1 15.8 39 15.8 38.9 15.8 C 39.1 15.7 39.1 15.6 39 15.5 C 37.3 15.1 36.5 15.7 35.4 16.9 L 35 16.7 L 35.3 16.5 C 34.4 16.2 33.8 16.6 34.1 17.2 L 34.1 17.3 C 34.3 17.2 34.4 17.2 34.6 17.3 C 34.3 17.4 33.8 17.6 33.7 17.6 L 33.3 17.7 L 33.3 17.6 C 32.5 17.7 31.7 18.2 31.3 18.9 L 31.6 18.9 C 31.4 19.1 31.2 19.3 30.9 19.5 C 31 19.6 31.2 19.6 31.4 19.5 L 31.2 19.7 L 31.4 19.6 L 31.2 19.9 L 31.5 19.8 L 31.5 19.9 L 31.9 19.9 C 30.8 20.5 29.5 20.9 28.3 21.1 C 30.5 21.3 32.3 20.1 34.3 19.5 C 34.1 20 33.6 20.2 33 20.3 C 33.9 20.2 34.2 20.2 34.8 19.9 C 34.8 21.3 38.2 22.4 36.6 24.3 C 36.8 24.6 36.8 24.9 36.6 25.2 L 36.9 25.5 C 36.5 25.9 36.5 26.2 36.7 26.5 C 36.6 26.4 36.4 26.4 36.2 26.3 C 35.9 26.6 36.4 27.2 36.7 27.4 C 36.8 27.8 37.1 28 37.5 27.9 C 37.5 27.5 37.4 27.3 37.3 27 C 37.8 27.4 38.3 27.9 37.6 28.8 C 37.7 28.3 37.5 28.1 37.1 27.9 C 35.8 32.4 35.3 33.5 37 37.3 C 37.7 38.9 38.6 40.6 38.1 41.7 C 38.3 42 38.6 42.3 38.8 42.5 L 38.9 42.4 C 39.5 42.7 39.7 43.2 39.5 43.9 C 39.7 44.8 40.1 45.3 40.8 45.3 C 41.2 45 38.5 39.9 39.3 41.3 C 39.2 40.5 39 39.7 38.8 38.9 C 40.3 39.6 39.9 42.1 41.5 42.8 L 41.4 43.2 C 42.6 44.1 43.4 45.5 43.6 47 L 43.4 47.1 C 45.8 50.3 51.6 52.2 55.3 52.1 C 55.5 52.1 55.6 52.2 55.6 52.4 L 55.6 52.5 L 55.5 52.4 L 55.4 52.5 C 55.9 52.9 56.3 53.3 56.8 53.7 L 56.6 53.8 L 56.8 53.9 C 56.7 54.3 56.8 54.6 57.2 54.7 C 57.3 54.6 57.4 54.5 57.3 54.3 C 57.5 54.3 57.5 54.4 57.5 54.6 C 57.8 55 58.3 55.4 58.7 55.6 L 58.7 55.4 C 59.5 55.4 59.4 55.7 59.9 55.6 L 60 56 C 60.2 56 60.4 55.9 60.6 55.7 C 60.2 54.8 60.8 54.7 61.8 55.1 L 61.6 55.3 C 62 55.7 62.7 57.2 62.3 58 L 62.5 58.1 C 62.4 58.3 61.4 59.3 61.5 59.6 L 61.3 59.7 L 61.4 59.9 C 60.7 60.4 60.3 60.9 60 61.6 C 60.1 61.9 60.1 62.2 60 62.4 L 60.4 62.7 L 60.7 62.4 C 60.2 63.1 59.8 64.2 59.8 65 C 61.2 66 62.3 68 62.7 69.5 C 63.4 70.4 64.4 71 65.6 71.2 C 67.8 74.7 62.6 80.7 60.6 83.7 C 60.9 83.5 61.2 83.4 61.5 83.3 C 60.9 83.9 60.3 84.5 59.4 84.9 L 60 84.9 C 58.9 85.2 58.5 85.6 58.9 86.1 C 58.7 86.1 58.6 86.3 58.7 86.4 C 59.6 86.6 60.5 86.5 61.3 86.1 L 61.2 86 C 61.9 85.5 62.8 84.9 63.6 84.5 C 63.4 84.6 63.2 84.5 63 84.3 C 64.9 84.2 65.8 83.6 65.7 82.5 C 65.5 82.7 65.3 82.7 65.2 82.6 C 66.6 81 68.9 81.2 70.3 79.6 L 69.9 80 L 70.1 79.7 L 69.7 79.4 L 69.9 79.2 C 77 79.1 83.5 66.4 84.6 60.3 C 84.9 58.2 81.9 58.8 81 59.2 Z M 52.6 15.5 C 52.7 15.5 52.8 15.5 52.9 15.5 C 52.8 15.5 52.8 15.6 52.7 15.6 C 52.7 15.6 52.7 15.6 52.6 15.5 L 52.6 15.5 Z M 50 17.3 C 50 17.3 50 17.3 50 17.3 C 50 17.3 50 17.3 50 17.3 C 50.1 17.3 50 17.3 50 17.3 Z M 52.2 16.7 C 52.1 16.8 52.1 16.9 52 16.9 C 51.9 16.8 51.8 16.8 51.8 16.7 C 52 16.8 52.1 16.8 52.2 16.7 Z M 51.3 15.5 C 51.3 15.5 51.3 15.5 51.3 15.5 C 51.3 15.5 51.4 15.5 51.3 15.5 L 51.4 15.6 C 51.3 15.6 51.2 15.7 51.1 15.8 C 51.3 15.8 51.5 15.9 51.6 16.1 C 51.5 16 51.3 16 51.1 16 L 51.2 16.2 C 51.1 16.2 50.9 16.2 50.8 16.1 L 50.8 16 C 50.7 15.9 50.6 15.9 50.6 15.8 C 50.8 15.9 51.1 15.7 51.3 15.5 Z M 50.1 15.6 C 50.1 15.5 50.1 15.5 50.1 15.6 C 50.1 15.5 50.1 15.5 50.1 15.6 C 50.1 15.6 50.1 15.6 50.1 15.6 Z M 50.3 15.7 C 50.3 15.7 50.3 15.7 50.3 15.7 L 50.3 15.7 C 50.3 15.6 50.3 15.6 50.2 15.6 L 50.4 15.6 C 50.4 15.7 50.4 15.8 50.5 15.8 C 50.4 15.7 50.3 15.7 50.3 15.7 Z M 50.1 17.3 C 50.2 17.3 50.2 17.2 50.1 17.3 L 50.3 17.3 C 50.5 17.1 50.7 16.9 50.8 16.8 C 51 16.9 51.2 16.9 51.4 16.9 C 51.5 16.9 51.5 16.9 51.6 16.9 C 51 17.5 51 17.7 51.6 17.6 L 51.4 17.8 C 51.8 18.1 52.2 18.3 52.5 18.4 C 52.6 18.7 52.5 19.1 52.2 19.3 C 52 18.9 51.9 18.8 51.6 18.4 L 51.3 18.7 L 51.2 18.3 L 50.7 18.2 C 51.2 17.8 51 17.5 50.1 17.3 Z M 46.5 19.1 L 46.4 18.9 C 46.5 18.9 46.6 19 46.7 19 L 46.5 19.1 Z')"/></g>
<metadata xmlns:d="https://loading.io/stock/" class="" style="y:0px;x:0px;webkit-user-select:none;webkit-transform-origin:50px 50px;webkit-animation-duration:1s;webkit-animation-delay:-0.692308s;webkit-animation:1s ease -0.692308s 1 normal none running none;user-select:none;transform-origin:50px 50px;transform:none;r:0px;pointer-events:all;direction:ltr;d:none"><d:name class="" style="y:0px;x:0px;webkit-user-select:none;webkit-transform-origin:50px 50px;webkit-animation-duration:1s;webkit-animation-delay:-0.615385s;webkit-animation:1s ease -0.615385s 1 normal none running none;user-select:none;transform-origin:50px 50px;transform:none;r:0px;pointer-events:all;direction:ltr;d:none">earth</d:name>


<d:tags class="" style="y:0px;x:0px;webkit-user-select:none;webkit-transform-origin:50px 50px;webkit-animation-duration:1s;webkit-animation-delay:-0.538462s;webkit-animation:1s ease -0.538462s 1 normal none running none;user-select:none;transform-origin:50px 50px;transform:none;r:0px;pointer-events:all;direction:ltr;d:none">globe,map,world,america,planet,pacific ocean,earth,web application</d:tags>


<d:license class="" style="y:0px;x:0px;webkit-user-select:none;webkit-transform-origin:50px 50px;webkit-animation-duration:1s;webkit-animation-delay:-0.461538s;webkit-animation:1s ease -0.461538s 1 normal none running none;user-select:none;transform-origin:50px 50px;transform:none;r:0px;pointer-events:all;direction:ltr;d:none">rf</d:license>


<d:slug class="" style="y:0px;x:0px;webkit-user-select:none;webkit-transform-origin:50px 50px;webkit-animation-duration:1s;webkit-animation-delay:-0.384615s;webkit-animation:1s ease -0.384615s 1 normal none running none;user-select:none;transform-origin:50px 50px;transform:none;r:0px;pointer-events:all;direction:ltr;d:none">rdvrsz</d:slug></metadata></g></g></g></g>
<style type="text/css" class="" style="y:0px;x:0px;webkit-user-select:none;webkit-transform-origin:50px 50px;webkit-animation-duration:1s;webkit-animation-delay:-0.307692s;webkit-animation:1s ease -0.307692s 1 normal none running none;user-select:none;transform-origin:50px 50px;transform:none;r:0px;pointer-events:all;direction:ltr;d:none"/></svg>